<?xml version="1.0" standalone="no"?>
<!DOCTYPE svg PUBLIC "-//W3C//DTD SVG 20010904//EN"
 "http://www.w3.org/TR/2001/REC-SVG-20010904/DTD/svg10.dtd">
<svg version="1.0" xmlns="http://www.w3.org/2000/svg"
 width="240.000000pt" height="240.000000pt" viewBox="0 0 240.000000 240.000000"
 preserveAspectRatio="xMidYMid meet">

<g transform="translate(0.000000,240.000000) scale(0.100000,-0.100000)"
fill="#FFFFFF" stroke="none">
<path d="M1008 2384 c-48 -7 -129 -27 -179 -44 -708 -237 -1033 -1033 -691
-1694 120 -233 312 -416 556 -532 116 -55 159 -64 186 -39 18 16 20 31 20 139
l0 121 -117 0 c-108 0 -122 2 -168 27 -65 34 -83 55 -135 156 -40 77 -57 97
-139 160 -35 27 -22 52 26 52 77 -1 140 -47 216 -158 35 -52 113 -92 180 -92
59 0 138 19 142 34 1 6 8 30 14 53 6 23 23 55 36 72 l25 29 -42 7 c-77 12
-188 45 -240 71 -63 32 -151 114 -185 172 -58 98 -91 287 -73 415 11 72 53
174 92 221 24 28 24 30 11 94 -19 92 5 250 39 253 69 5 147 -19 251 -80 l67
-40 73 16 c50 12 120 17 227 17 107 0 177 -5 227 -17 l73 -16 67 40 c104 61
182 85 251 80 34 -3 58 -161 39 -253 -13 -64 -13 -66 11 -94 73 -88 107 -231
92 -384 -17 -163 -60 -259 -154 -348 -80 -76 -178 -117 -350 -147 l-38 -6 20
-22 c50 -53 56 -88 60 -327 4 -256 7 -266 74 -257 48 6 211 84 299 142 267
178 466 491 514 812 121 805 -572 1493 -1377 1367z"/>
</g>
</svg>
